<?xml version="1.0" encoding="UTF-8" standalone="no"?>
<svg width="247px" height="40px" viewBox="0 0 247 40" version="1.1" xmlns="http://www.w3.org/2000/svg" xmlns:xlink="http://www.w3.org/1999/xlink">
    <!-- Generator: Sketch 3.7 (28169) - http://www.bohemiancoding.com/sketch -->
    <title>Page 1</title>
    <desc>Created with Sketch.</desc>
    <defs>
        <polygon id="path-1" points="0 0.231397849 246.013763 0.231397849 246.013763 40 0 40"></polygon>
    </defs>
    <g id="Page-1" stroke="none" stroke-width="1" fill="none" fill-rule="evenodd">
        <g id="Landing---Otra-Font" transform="translate(-103.000000, -39.000000)">
            <g id="Page-1" transform="translate(103.000000, 39.000000)">
                <path d="M60.2487312,7.27445161 C61.6822796,7.27445161 62.9248602,7.44778495 63.9764731,7.79402151 C65.0276559,8.14068817 65.9356129,8.62455914 66.7003441,9.24563441 C68.2061505,10.4645591 69.1855054,12.1733763 69.6396989,14.3712258 L65.1235699,15.1957419 C64.7407742,13.9772473 64.1493763,12.9914409 63.3489462,12.2387527 C62.5485161,11.4860645 61.5506667,11.1097204 60.3562581,11.1097204 C58.7308817,11.1097204 57.4169032,11.7905806 56.4134624,13.1527312 C55.3381935,14.6344516 54.800129,16.6834839 54.800129,19.299828 C54.800129,21.9166022 55.2779785,23.9596129 56.2341075,25.4292903 C57.1898065,26.8989677 58.492172,27.6335914 60.1412043,27.6335914 C61.7898065,27.6335914 63.0323871,27.2335914 63.8689462,26.4327312 C64.7050753,25.6327312 65.1235699,24.5991828 65.1235699,23.3325161 L69.6753978,23.3325161 C69.6753978,25.9372473 68.8448602,27.9505806 67.1846452,29.372086 C65.5235699,30.7944516 63.2474409,31.5049892 60.3562581,31.5049892 C57.2736774,31.5049892 54.8237849,30.4297204 53.0083011,28.2787527 C51.167871,26.0809032 50.2483011,23.0938065 50.2483011,19.3178925 C50.2483011,15.4946667 51.1915269,12.5075699 53.0796989,10.3570323 C54.8956129,8.30197849 57.2852903,7.27445161 60.2487312,7.27445161" id="Fill-1" fill="#FFFFFF"></path>
                <mask id="mask-2" fill="white">
                    <use xlink:href="#path-1"></use>
                </mask>
                <g id="Clip-4"></g>
                <path d="M73.6649462,31.0030108 L77.8941935,31.0030108 L77.8941935,13.5470968 L73.6649462,13.5470968 L73.6649462,31.0030108 Z M81.2993548,7.2744086 L71.2989247,11.0021505 L70.2236559,8.34967742 L79.7939785,3.61806452 L81.2993548,7.2744086 Z" id="Fill-3" fill="#FFFFFF" mask="url(#mask-2)"></path>
                <polygon id="Fill-5" fill="#FFFFFF" mask="url(#mask-2)" points="85.5179785 13.5828387 89.4964731 26.8095054 93.5110968 13.5828387 98.3859355 13.5828387 91.8981935 31.0030538 87.1308817 31.0030538 80.6431398 13.5828387"></polygon>
                <path d="M101.070108,13.5470968 L105.299785,13.5470968 L105.299785,31.0030108 L101.070108,31.0030108 L101.070108,13.5470968 Z M100.568172,7.95526882 C100.568172,7.19096774 100.795269,6.58752688 101.249462,6.14537634 C101.703226,5.70322581 102.348387,5.48215054 103.184946,5.48215054 C103.996989,5.48215054 104.636559,5.70322581 105.102366,6.14537634 C105.568602,6.58752688 105.80172,7.19096774 105.80172,7.95526882 C105.80172,8.72 105.568602,9.32387097 105.102366,9.7655914 C104.636559,10.2077419 103.996989,10.4283871 103.184946,10.4283871 C102.348387,10.4283871 101.703226,10.2077419 101.249462,9.7655914 C100.795269,9.32387097 100.568172,8.72 100.568172,7.95526882 L100.568172,7.95526882 Z" id="Fill-6" fill="#FFFFFF" mask="url(#mask-2)"></path>
                <path d="M117.25729,13.1170323 C118.356215,13.1170323 119.341591,13.3024086 120.21428,13.6723011 C121.086108,14.0430538 121.820731,14.5269247 122.418581,15.1243441 C123.612989,16.2710108 124.318366,17.7170323 124.533419,19.4611183 L120.268043,19.5686452 C120.076645,18.8043441 119.723957,18.1707957 119.210409,17.6688602 C118.69643,17.1673548 118.105032,16.916172 117.436215,16.916172 C116.766968,16.916172 116.193204,17.0181075 115.715785,17.2211183 C115.237505,17.4245591 114.819871,17.7406882 114.461161,18.1707957 C113.648258,19.1746667 113.242667,20.5609032 113.242667,22.3286452 C113.242667,24.0972473 113.624602,25.4292903 114.389763,26.3252043 C115.154065,27.2215484 116.080086,27.6697204 117.167398,27.6697204 C118.25428,27.6697204 119.043097,27.4129462 119.532989,26.8989677 C120.022882,26.3854194 120.268043,25.6864946 120.268043,24.8021935 L124.533419,24.8021935 C124.533419,26.7140215 123.899871,28.3032688 122.633634,29.5695054 C121.343312,30.859828 119.539011,31.5049892 117.221161,31.5049892 C114.927398,31.5049892 113.003097,30.6688602 111.450409,28.9957419 C109.801376,27.2034839 108.97729,24.9695054 108.97729,22.2929462 C108.97729,19.4735914 109.801376,17.2150968 111.450409,15.5183226 C113.003097,13.9174624 114.939011,13.1170323 117.25729,13.1170323" id="Fill-7" fill="#FFFFFF" mask="url(#mask-2)"></path>
                <path d="M138.942452,24.1926882 C137.532559,23.8107527 136.218581,23.6189247 134.999656,23.6189247 C132.705892,23.6189247 131.558796,24.384086 131.558796,25.9131183 C131.558796,26.5582796 131.821161,27.1139785 132.347183,27.5797849 C132.872774,28.0460215 133.714925,28.2787097 134.874495,28.2787097 C136.032774,28.2787097 136.988903,27.8907527 137.742022,27.1139785 C138.49471,26.3376344 138.89471,25.363871 138.942452,24.1926882 M134.139441,20.8232258 C135.525247,20.8232258 137.126108,21.0507527 138.942452,21.5045161 L138.942452,19.7836559 C138.942452,18.5651613 138.69729,17.6632258 138.207828,17.0774194 C137.717505,16.4924731 136.917505,16.1995699 135.806108,16.1995699 C134.69514,16.1995699 133.840516,16.4206452 133.243527,16.8623656 C132.645677,17.3049462 132.347183,17.932043 132.347183,18.7445161 L127.723527,18.7445161 C127.723527,16.7612903 128.422452,15.3277419 129.820301,14.4430108 C131.218151,13.5591398 133.171699,13.1169892 135.680946,13.1169892 C139.265032,13.1169892 141.582882,14.3711828 142.634495,16.8804301 C142.992774,17.7406452 143.172129,18.7565591 143.172129,19.9273118 L143.172129,31.0030108 L139.480086,31.0030108 L139.157505,28.6731183 C138.034495,30.5612903 136.313634,31.5049462 133.996215,31.5049462 C131.749763,31.5049462 130.005247,30.9556989 128.763097,29.855914 C127.616,28.8047312 127.042237,27.4722581 127.042237,25.8593548 C127.042237,24.2464516 127.675355,23.003871 128.942022,22.1316129 C130.208258,21.2597849 131.940731,20.8232258 134.139441,20.8232258" id="Fill-8" fill="#FFFFFF" mask="url(#mask-2)"></path>
                <path d="M152.022108,27.1677419 L155.319742,27.1677419 C157.518022,27.1677419 159.298237,26.4270968 160.660387,24.9453763 C161.95071,23.5113978 162.595871,21.6597849 162.595871,19.3896774 C162.595871,17.071828 161.95071,15.1956989 160.660387,13.7621505 C159.321892,12.3045161 157.542108,11.5754839 155.319742,11.5754839 L152.022108,11.5754839 L152.022108,27.1677419 Z M155.319742,7.74021505 C158.856086,7.74021505 161.71157,8.79182796 163.886624,10.8946237 C166.084473,12.9978495 167.184258,15.8292473 167.184258,19.3896774 C167.184258,22.9264516 166.084473,25.7462366 163.886624,27.8486022 C161.71157,29.951828 158.856086,31.0030108 155.319742,31.0030108 L147.756731,31.0030108 L147.756731,7.74021505 L155.319742,7.74021505 Z" id="Fill-9" fill="#FFFFFF" mask="url(#mask-2)"></path>
                <path d="M170.947097,13.5470968 L175.176774,13.5470968 L175.176774,31.0030108 L170.947097,31.0030108 L170.947097,13.5470968 Z M170.445161,7.95526882 C170.445161,7.19096774 170.672258,6.58752688 171.126452,6.14537634 C171.580215,5.70322581 172.225376,5.48215054 173.061935,5.48215054 C173.873978,5.48215054 174.513548,5.70322581 174.979355,6.14537634 C175.445591,6.58752688 175.67871,7.19096774 175.67871,7.95526882 C175.67871,8.72 175.445591,9.32387097 174.979355,9.7655914 C174.513548,10.2077419 173.873978,10.4283871 173.061935,10.4283871 C172.225376,10.4283871 171.580215,10.2077419 171.126452,9.7655914 C170.672258,9.32387097 170.445161,8.72 170.445161,7.95526882 L170.445161,7.95526882 Z" id="Fill-10" fill="#FFFFFF" mask="url(#mask-2)"></path>
                <path d="M190.668344,19.335957 C190.668344,18.3682151 190.399527,17.5793978 189.861892,16.9699355 C189.324258,16.3609032 188.505333,16.055957 187.406409,16.055957 C186.307054,16.055957 185.470925,16.3609032 184.897161,16.9699355 C184.323828,17.5793978 184.036946,18.3682151 184.036946,19.335957 C184.036946,20.3036989 184.323828,21.0985376 184.897161,21.7196129 C185.470925,22.3411183 186.307054,22.6512258 187.406409,22.6512258 C188.505333,22.6512258 189.324258,22.3411183 189.861892,21.7196129 C190.399527,21.0985376 190.668344,20.3036989 190.668344,19.335957 L190.668344,19.335957 Z M185.184043,31.3974624 C182.937591,31.4925161 181.814581,32.3406882 181.814581,33.9424086 C181.814581,34.7544516 182.286409,35.4056344 183.230495,35.895957 C184.174151,36.3854194 185.29157,36.6305806 186.581892,36.6305806 C187.872215,36.6305806 188.881677,36.5230538 189.61071,36.308 C190.339312,36.0929462 190.954796,35.8060645 191.456731,35.4477849 C192.532,34.7307957 193.069634,33.8705806 193.069634,32.8671398 C193.069634,32.4366022 192.919957,32.083914 192.621892,31.8095054 C192.322968,31.5342366 191.886839,31.3974624 191.313505,31.3974624 L185.184043,31.3974624 Z M181.958237,23.8701505 C180.547914,22.6757419 179.843398,21.1819785 179.843398,19.3897204 C179.843398,17.5019785 180.584043,15.9729462 182.065763,14.8017634 C183.499312,13.6787527 185.141892,13.1170323 186.994366,13.1170323 C188.845978,13.1170323 190.393075,13.4636989 191.636086,14.156172 C191.779312,12.7944516 192.364688,11.6950968 193.392215,10.8585376 C194.396086,10.0228387 195.578882,9.60434409 196.941032,9.60434409 L196.725978,13.6546667 C194.670495,13.6546667 193.607269,14.3355269 193.535871,15.6976774 C194.419742,16.7970323 194.861892,17.920043 194.861892,19.0671398 C194.861892,20.2138065 194.658452,21.175957 194.25286,21.9523011 C193.845978,22.7295054 193.296301,23.3802581 192.603828,23.9058495 C191.17028,25.0529462 189.425333,25.6262796 187.37071,25.6262796 C186.199527,25.6262796 185.135871,25.4473548 184.180602,25.0886452 C183.224473,25.3755269 182.746624,25.9488602 182.746624,26.8095054 C182.746624,27.8847742 183.654581,28.4224086 185.470925,28.4224086 L191.313505,28.4224086 C195.279957,28.4224086 197.263613,29.8086452 197.263613,32.5802581 C197.263613,33.5123011 197.030495,34.4262796 196.564688,35.3221935 C196.098452,36.2185376 195.423183,37.0125161 194.539312,37.7058495 C192.579742,39.2348817 190.118237,40.000043 187.155656,40.000043 C184.288129,40.000043 181.958237,39.4142366 180.165978,38.2434839 C178.49286,37.120043 177.656731,35.7462796 177.656731,34.1213333 C177.656731,33.0460645 177.985333,32.1914409 178.642538,31.5587527 C179.299312,30.9256344 180.165978,30.5256344 181.241247,30.3578925 C179.831355,29.4976774 179.126409,28.4344516 179.126409,27.1677849 C179.126409,26.3316559 179.389204,25.6327312 179.915226,25.0710108 C180.440387,24.5097204 181.121677,24.1092903 181.958237,23.8701505 L181.958237,23.8701505 Z" id="Fill-11" fill="#FFFFFF" mask="url(#mask-2)"></path>
                <path d="M200.037419,13.5470968 L204.267097,13.5470968 L204.267097,31.0030108 L200.037419,31.0030108 L200.037419,13.5470968 Z M199.535484,7.95526882 C199.535484,7.19096774 199.762151,6.58752688 200.216774,6.14537634 C200.670538,5.70322581 201.315699,5.48215054 202.152258,5.48215054 C202.964301,5.48215054 203.603871,5.70322581 204.069677,6.14537634 C204.535914,6.58752688 204.769032,7.19096774 204.769032,7.95526882 C204.769032,8.72 204.535914,9.32387097 204.069677,9.7655914 C203.603871,10.2077419 202.964301,10.4283871 202.152258,10.4283871 C201.315699,10.4283871 200.670538,10.2077419 200.216774,9.7655914 C199.762151,9.32387097 199.535484,8.72 199.535484,7.95526882 L199.535484,7.95526882 Z" id="Fill-12" fill="#FFFFFF" mask="url(#mask-2)"></path>
                <path d="M219.346108,30.5729032 C217.768903,31.1939785 216.525892,31.5049462 215.618366,31.5049462 C214.709978,31.5049462 213.91557,31.3974194 213.23471,31.1823656 C212.553849,30.9673118 211.949978,30.6447312 211.424817,30.2146237 C210.325032,29.2348387 209.775785,27.8847312 209.775785,26.163871 L209.775785,16.4146237 L207.338366,16.4146237 L207.338366,13.5827957 L209.775785,13.5827957 L209.775785,8.99483871 L214.005462,8.99483871 L214.005462,13.5827957 L218.736645,13.5827957 L218.736645,16.4146237 L214.005462,16.4146237 L214.005462,26.0206452 C214.005462,27.4546237 214.686323,28.1711828 216.048473,28.1711828 C216.740946,28.1711828 217.63729,27.9806452 218.736645,27.5978495 L219.346108,30.5729032 Z" id="Fill-13" fill="#FFFFFF" mask="url(#mask-2)"></path>
                <path d="M233.041505,24.1926882 C231.631613,23.8107527 230.317634,23.6189247 229.09871,23.6189247 C226.804946,23.6189247 225.657849,24.384086 225.657849,25.9131183 C225.657849,26.5582796 225.920215,27.1139785 226.446237,27.5797849 C226.971828,28.0460215 227.813978,28.2787097 228.973548,28.2787097 C230.131828,28.2787097 231.087957,27.8907527 231.841075,27.1139785 C232.593763,26.3376344 232.993763,25.363871 233.041505,24.1926882 M228.238495,20.8232258 C229.624301,20.8232258 231.225161,21.0507527 233.041505,21.5045161 L233.041505,19.7836559 C233.041505,18.5651613 232.796344,17.6632258 232.306882,17.0774194 C231.816559,16.4924731 231.016559,16.1995699 229.905161,16.1995699 C228.794194,16.1995699 227.93957,16.4206452 227.342581,16.8623656 C226.744731,17.3049462 226.446237,17.932043 226.446237,18.7445161 L221.822581,18.7445161 C221.822581,16.7612903 222.521505,15.3277419 223.919355,14.4430108 C225.317204,13.5591398 227.270753,13.1169892 229.78,13.1169892 C233.364086,13.1169892 235.681935,14.3711828 236.733548,16.8804301 C237.091828,17.7406452 237.271183,18.7565591 237.271183,19.9273118 L237.271183,31.0030108 L233.57914,31.0030108 L233.256559,28.6731183 C232.133548,30.5612903 230.412688,31.5049462 228.095269,31.5049462 C225.848817,31.5049462 224.104301,30.9556989 222.862151,29.855914 C221.715054,28.8047312 221.14129,27.4722581 221.14129,25.8593548 C221.14129,24.2464516 221.774409,23.003871 223.041075,22.1316129 C224.307312,21.2597849 226.039785,20.8232258 228.238495,20.8232258" id="Fill-14" fill="#FFFFFF" mask="url(#mask-2)"></path>
                <polygon id="Fill-15" fill="#FFFFFF" mask="url(#mask-2)" points="241.784086 6.41419355 246.013763 6.41419355 246.013763 31.0030108 241.784086 31.0030108"></polygon>
                <polygon id="Fill-16" fill="#FFFFFF" mask="url(#mask-2)" points="15.4847742 0.231182796 15.4847742 9.45096774 7.83574194 9.45096774 7.83574194 27.7447312 21.5910108 27.7447312 21.5910108 36.8913978 4.30107527e-05 36.8913978 4.30107527e-05 0.231182796"></polygon>
                <polygon id="Fill-17" fill="#FFFFFF" mask="url(#mask-2)" points="25.9824086 36.8913978 25.9824086 27.6716129 33.6314409 27.6716129 33.6314409 9.37784946 19.876172 9.37784946 19.876172 0.231182796 41.4671398 0.231182796 41.4671398 36.8913978"></polygon>
            </g>
        </g>
    </g>
</svg>